<?xml version="1.0" standalone="no"?>
<svg xmlns="http://www.w3.org/2000/svg" width="24" height="24"><rect width="24" height="24" opacity="0"></rect><g><path d="M20.76 6.91Q20.45 5.47 19.31 4.49Q18.17 3.5 16.7 3.5L9.19 3.5Q8.86 3.07 8.36 2.82Q7.87 2.57 7.32 2.57L4.39 2.57Q3.38 2.57 2.51 3.08Q1.63 3.6 1.12 4.48Q0.6 5.35 0.6 6.38L0.6 17.52Q0.6 18.55 1.12 19.43Q1.63 20.3 2.51 20.81Q3.38 21.31 4.39 21.31L19.7 21.31Q20.74 21.31 21.6 20.8Q22.46 20.28 22.98 19.4Q23.5 18.53 23.5 17.52L23.5 10.42Q23.5 9.14 22.74 8.21Q21.98 7.27 20.76 6.91ZM11.33 6.91Q11.18 6.91 11.09 6.86Q10.99 6.82 10.92 6.72L10.42 5.74L16.78 5.74Q17.33 5.74 17.72 6.05Q18.12 6.36 18.38 6.91L11.33 6.91Z" fill="rgba(0,0,0,0.4)"></path></g></svg>