<?xml version="1.0" standalone="no"?>
<svg xmlns="http://www.w3.org/2000/svg" width="24" height="24"><rect width="24" height="24" opacity="0"></rect><g><path d="M11.76 5.57Q12.29 5.57 12.66 5.21Q13.03 4.85 13.03 4.32Q13.03 3.79 12.66 3.43Q12.29 3.07 11.76 3.07L3.29 3.07Q2.76 3.07 2.39 3.43Q2.02 3.79 2.02 4.32Q2.02 4.85 2.39 5.21Q2.76 5.57 3.29 5.57L11.76 5.57ZM13.03 10.32Q13.03 9.79 12.66 9.43Q12.29 9.07 11.76 9.07L3.29 9.07Q2.76 9.07 2.39 9.43Q2.02 9.79 2.02 10.32Q2.02 10.85 2.39 11.21Q2.76 11.57 3.29 11.57L11.76 11.57Q12.29 11.57 12.66 11.21Q13.03 10.85 13.03 10.32ZM3.29 15.07Q2.76 15.07 2.39 15.43Q2.02 15.79 2.02 16.32Q2.02 16.85 2.39 17.21Q2.76 17.57 3.29 17.57L7.75 17.57Q8.28 17.57 8.64 17.21Q9 16.85 9 16.32Q9 15.79 8.64 15.43Q8.28 15.07 7.75 15.07L3.29 15.07Z" fill="rgba(0,0,0,0.4)"></path><path d="M18.31 3.38Q17.59 3.46 17.14 3.97Q16.68 4.49 16.7 5.21L16.73 6.91L16.73 13.13Q16.73 13.32 16.66 13.44Q16.58 13.56 16.44 13.68Q16.15 13.9 15.22 14.26L15.14 14.28Q13.85 14.78 13.02 15.36Q12.19 15.94 11.78 16.99Q11.52 17.71 11.63 18.44Q11.74 19.18 12.19 19.75Q12.79 20.5 13.76 20.78Q14.74 21.07 15.58 20.95Q17.66 20.71 18.44 19.32Q19.22 17.93 19.22 16.37L19.22 7.18Q19.25 6.91 19.37 6.78Q19.49 6.65 19.78 6.48Q20.18 6.26 20.64 5.98Q21.55 5.42 21.84 4.66Q22.13 3.89 21.77 2.95L18.31 3.38ZM15.38 18.7Q14.93 18.74 14.58 18.65Q14.23 18.55 14.04 18.31Q13.94 18.17 13.92 18Q13.9 17.83 13.97 17.62Q14.11 17.21 14.57 16.93Q15.02 16.66 15.82 16.34L15.86 16.32L16.01 16.27Q16.25 16.15 16.49 16.06Q16.73 15.96 16.92 15.84L16.92 16.73Q16.92 17.38 16.62 17.99Q16.32 18.6 15.38 18.7Z" fill="rgba(0,0,0,0.4)"></path></g></svg>