<?xml version="1.0" standalone="no"?>
<svg xmlns="http://www.w3.org/2000/svg" width="24" height="24"><rect width="24" height="24" opacity="0"></rect><g><path d="M20.93 6.79Q20.57 5.3 19.39 4.28Q18.22 3.26 16.7 3.26L9.31 3.26Q8.95 2.83 8.42 2.59Q7.9 2.35 7.37 2.35L4.44 2.35Q3.34 2.35 2.42 2.89Q1.51 3.43 0.97 4.34Q0.43 5.26 0.43 6.34L0.43 17.47Q0.43 18.58 0.97 19.5Q1.51 20.42 2.42 20.95Q3.34 21.48 4.44 21.48L19.75 21.48Q20.83 21.48 21.73 20.94Q22.63 20.4 23.17 19.49Q23.71 18.58 23.71 17.47L23.71 10.37Q23.71 9.07 22.96 8.12Q22.2 7.18 20.93 6.79ZM11.45 6.82Q11.26 6.82 11.17 6.77Q11.09 6.72 11.04 6.62L10.68 5.81L16.8 5.81Q17.26 5.81 17.57 6.07Q17.88 6.34 18.17 6.82L11.45 6.82Z" fill="rgba(0,0,0,0.6)"></path></g></svg>